#!OML:ASF H:\Terrain\Walking\May29\JustinRory\Justin.ASF
:FULLY-SPECIFIED
:DEGREES
389
root 11.2228 15.0911 19.2406 -294.582 -67.2533 309.16
lowerback 24.1945 2.3006 1.23612
upperback 7.87024 2.73942 0.860125
thorax -4.76635 1.09245 -0.507093
lowerneck -10.3498 -6.58953 -7.84537
upperneck 29.5738 -10.2285 6.43332
head 12.1891 -4.85621 2.31387
rclavicle 5.08889e-014 2.54444e-014
rhumerus -56.0873 -46.7342 1.23637
rradius 32.2163
rwrist -72.464
rhand -6.33312 -8.4076
rfingers 7.12502
rthumb 19.5121 -37.4485
lclavicle 5.08889e-014 2.54444e-014
lhumerus -33.7106 23.6423 57.2186
lradius 35.1559
lwrist -11.2314
lhand -4.26714 27.2572
lfingers 7.12502
lthumb 21.4974 56.0843
rfemur -14.0238 -14.8305 13.3226
rtibia 40.0675
rfoot -25.2549 -7.36618
rtoes -43.8681
lfemur -70.6191 24.8441 -3.67759
ltibia 87.2739
lfoot -24.4644 -14.4427
ltoes -17.5901
390
root 11.1819 15.0722 19.3252 -294.836 -67.3345 309.233
lowerback 24.1464 2.39738 0.714825
upperback 7.88066 2.75033 0.933604
thorax -4.76168 1.09471 -0.132672
lowerneck -10.1861 -6.7709 -8.38706
upperneck 29.4861 -10.3973 6.53247
head 12.1776 -4.98013 2.42124
rclavicle -4.92986e-014 2.22639e-014
rhumerus -55.5557 -47.5183 1.35266
rradius 31.8489
rwrist -72.4986
rhand -7.31075 -8.5476
rfingers 7.12502
rthumb 18.5719 -37.681
lclavicle -4.92986e-014 2.22639e-014
lhumerus -33.7659 23.3153 56.8072
lradius 36.039
lwrist -10.7385
lhand -3.98928 27.7416
lfingers 7.12502
lthumb 21.7643 56.538
rfemur -13.1972 -14.5237 12.8312
rtibia 39.3588
rfoot -24.9512 -7.65255
rtoes -43.7988
lfemur -71.2814 24.8583 -5.00662
ltibia 87.209
lfoot -24.0731 -14.0935
ltoes -16.0727
391
root 11.142 15.0538 19.407 -294.736 -67.1479 309.005
lowerback 23.9486 2.44374 0.442866
upperback 7.89715 2.76074 1.09837
thorax -4.66781 1.09841 0.203211
lowerneck -10.0104 -6.87482 -9.3204
upperneck 29.526 -10.6077 7.30734
head 12.2898 -5.093 2.84395
rclavicle -7.79236e-014 -9.38264e-014
rhumerus -55.0629 -48.3966 1.44411
rradius 31.5068
rwrist -72.39
rhand -8.51937 -8.46754
rfingers 7.12502
rthumb 17.409 -37.7079
lclavicle -7.79236e-014 -9.38264e-014
lhumerus -33.7496 23.1562 56.376
lradius 36.8391
lwrist -10.312
lhand -3.82262 28.4594
lfingers 7.12502
lthumb 21.9243 57.2371
rfemur -12.4362 -14.0405 12.7174
rtibia 38.5775
rfoot -24.3319 -7.74098
rtoes -42.7347
lfemur -71.9594 24.9325 -5.96199
ltibia 87.1513
lfoot -23.2147 -13.8652
ltoes -12.2429
392
root 11.1027 15.0292 19.4941 -294.822 -66.7322 309.085
lowerback 23.7158 2.33482 0.591488
upperback 7.79209 2.67566 1.19151
thorax -4.66389 1.06341 0.246643
lowerneck -9.80885 -6.99931 -9.76962
upperneck 29.6222 -10.8235 7.62106
head 12.3618 -5.21016 3.01246
rclavicle 6.36111e-014 1.59028e-015
rhumerus -55.0004 -49.1738 1.61549
rradius 31.1369
rwrist -71.6923
rhand -8.48716 -8.06882
rfingers 7.12502
rthumb 17.44 -37.3065
lclavicle 6.36111e-014 1.59028e-015
lhumerus -33.7831 22.7107 55.8534
lradius 37.6538
lwrist -9.78418
lhand -4.0957 28.7661
lfingers 7.12502
lthumb 21.6621 57.5743
rfemur -11.6996 -13.5633 12.7192
rtibia 37.781
rfoot -23.9463 -7.53773
rtoes -41.5201
lfemur -72.7346 24.7507 -6.77764
ltibia 87.2458
lfoot -22.6295 -12.8917
ltoes -8.18953
393
root 11.0669 14.9974 19.5806 -294.984 -66.7434 309.156
lowerback 23.6435 2.37415 0.333127
upperback 7.73048 2.67853 1.22316
thorax -4.70937 1.06603 0.427672
lowerneck -9.96437 -7.19346 -10.1172
upperneck 29.727 -10.9644 7.45488
head 12.4675 -5.31977 2.9801
rclavicle 1.74931e-014 -3.81667e-014
rhumerus -55.1358 -50.053 1.83888
rradius 30.916
rwrist -71.1342
rhand -7.88616 -7.90975
rfingers 7.12502
rthumb 18.0184 -37.0951
lclavicle 1.74931e-014 -3.81667e-014
lhumerus -33.7358 22.2769 55.3784
lradius 38.4461
lwrist -9.42567
lhand -4.13696 28.7698
lfingers 7.12502
lthumb 21.6224 57.5825
rfemur -10.8954 -12.8608 12.2395
rtibia 36.9397
rfoot -23.8858 -6.95051
rtoes -40.5256
lfemur -73.2063 24.5935 -7.8175
ltibia 87.5627
lfoot -22.5386 -11.4874
ltoes -5.66198
